<?xml version="1.0" encoding="utf-8"?>
<!-- Generator: Adobe Illustrator 27.0.0, SVG Export Plug-In . SVG Version: 6.00 Build 0)  -->
<svg version="1.1" id="Camada_1" xmlns="http://www.w3.org/2000/svg" xmlns:xlink="http://www.w3.org/1999/xlink" x="0px" y="0px"
	 viewBox="0 0 564 96" style="enable-background:new 0 0 564 96;" xml:space="preserve">
<style type="text/css">
	.st0{fill:#6aa6a6;}
	.st1{fill:url(#SVGID_1_);}
</style>
<g>
	<g>
		<path class="st0" d="M34.3,60.7h19.3c4.1,0,8-1,11.6-3.1c3.6-2,6.4-4.9,8.5-8.6c2.1-3.7,3.2-7.7,3.2-12.1c0-4-1.1-7.8-3.2-11.3
			c-2.1-3.5-5-6.3-8.6-8.4c-3.6-2.1-7.4-3.2-11.6-3.2H13.3v70.4h-3.2V10.9h43.5c4.7,0,9,1.2,13.1,3.6c4.1,2.4,7.3,5.6,9.8,9.6
			c2.4,4,3.6,8.3,3.6,12.9c0,5.3-1.1,9.9-3.4,13.9c-2.3,4-5.3,7.1-9.2,9.4l8.3,24.3h-3.4l-7.9-22.8c-1.2,0.5-2.1,0.8-2.7,1l7.4,21.8
			h-3.4l-7.2-21c-0.3,0.1-1.2,0.2-2.8,0.3l6.9,20.7h-3.4l-6.8-20.6h-2.9L56,84.5h-3.4l-6.5-20.6H34.3V60.7z M34.3,54.3h19.3
			c4.6,0,8.6-1.6,11.9-4.9c3.3-3.2,5-7.4,5-12.5c0-4.4-1.7-8.2-5.1-11.5c-3.4-3.3-7.3-5-11.8-5H19.7v64h-3.2V17.3h37.1
			c3.5,0,6.8,0.9,9.9,2.7c3.1,1.8,5.6,4.2,7.4,7.3c1.8,3,2.8,6.3,2.8,9.7c0,5.8-2,10.7-5.9,14.6c-4,3.9-8.7,5.9-14.2,5.9H34.3V54.3z
			 M34.3,47.9h19.3c2.9,0,5.4-0.9,7.4-2.8c2-1.9,3-4.6,3-8.1c0-2.6-1.1-4.9-3.2-7c-2.1-2.1-4.6-3.1-7.3-3.1H26.1v57.6h-3.2V23.7
			h30.7c3.6,0,6.8,1.3,9.6,4c2.8,2.7,4.1,5.8,4.1,9.2c0,4.3-1.3,7.7-4,10.3c-2.7,2.6-5.9,3.9-9.7,3.9H34.3V47.9z M32.5,84.5h-3.2
			V30.1h24.3c2,0,3.7,0.7,5.1,2c1.4,1.3,2.2,3,2.2,4.8c0,5.2-2.4,7.7-7.3,7.7H34.3v-3.2h19.3c1.3,0,2.3-0.3,3-1
			c0.7-0.7,1.1-1.8,1.1-3.5c0-1-0.4-1.9-1.2-2.6c-0.8-0.7-1.8-1-2.9-1H32.5V84.5z"/>
		<path class="st0" d="M86.9,10.9h3.2v73.6h-3.2V10.9z M93.3,10.9h3.2v73.6h-3.2V10.9z M99.7,10.9h3.2v73.6h-3.2V10.9z M106.1,10.9
			h3.2v73.6h-3.2V10.9z"/>
		<path class="st0" d="M278,25.2l-2.7,1.7c-3.4-4.9-7.7-8.9-13.1-11.7c-5.3-2.9-11.1-4.3-17.3-4.3c-5,0-9.7,1-14.3,2.9
			c-4.5,1.9-8.5,4.6-11.8,7.8c-3.3,3.3-5.9,7.2-7.8,11.8c-1.9,4.5-2.9,9.3-2.9,14.3c0,5,1,9.7,2.9,14.3c1.9,4.5,4.6,8.5,7.8,11.8
			c3.3,3.3,7.2,5.9,11.8,7.8c4.5,1.9,9.3,2.9,14.3,2.9c6.2,0,12-1.5,17.3-4.4c5.4-2.9,9.7-6.8,13.1-11.8l2.6,2
			c-3.7,5.3-8.4,9.6-14.2,12.7c-5.8,3.1-12.1,4.7-18.8,4.7c-5.4,0-10.6-1.1-15.5-3.2c-4.9-2.1-9.2-5-12.8-8.5
			c-3.6-3.6-6.4-7.8-8.5-12.8s-3.2-10.1-3.2-15.5s1.1-10.6,3.2-15.5c2.1-4.9,5-9.2,8.5-12.8c3.6-3.6,7.8-6.4,12.8-8.5
			c4.9-2.1,10.1-3.2,15.5-3.2c6.8,0,13,1.6,18.8,4.7C269.5,15.6,274.3,19.8,278,25.2z M272.7,28.9l-2.7,1.7
			c-2.8-4.1-6.4-7.3-10.8-9.7c-4.4-2.4-9.2-3.6-14.3-3.6c-4.1,0-8.1,0.8-11.8,2.4c-3.8,1.6-7,3.8-9.7,6.5c-2.7,2.7-4.9,5.9-6.5,9.7
			c-1.6,3.8-2.4,7.7-2.4,11.8s0.8,8.1,2.4,11.8c1.6,3.8,3.8,7,6.5,9.7c2.7,2.7,5.9,4.9,9.7,6.5c3.8,1.6,7.7,2.4,11.8,2.4
			c5.2,0,9.9-1.2,14.4-3.6c4.4-2.4,8-5.6,10.8-9.7l2.6,1.9c-3.1,4.5-7.1,8.1-11.9,10.7c-4.9,2.6-10.1,3.9-15.8,3.9
			c-6.1,0-11.7-1.5-16.8-4.5c-5.2-3-9.2-7.1-12.2-12.2c-3-5.2-4.5-10.8-4.5-16.8c0-6.1,1.5-11.7,4.5-16.8c3-5.2,7.1-9.2,12.2-12.2
			c5.2-3,10.8-4.5,16.8-4.5c5.7,0,11,1.3,15.9,4C265.7,20.7,269.6,24.3,272.7,28.9z M267.4,32.4l-2.7,1.7c-2.2-3.2-5-5.7-8.5-7.6
			c-3.5-1.9-7.3-2.8-11.3-2.8c-4.4,0-8.4,1.1-12,3.2s-6.6,5.1-8.7,8.7s-3.2,7.7-3.2,12c0,4.4,1.1,8.4,3.2,12s5.1,6.6,8.7,8.7
			s7.7,3.2,12,3.2c4.1,0,7.8-0.9,11.3-2.8c3.5-1.9,6.3-4.5,8.5-7.7l2.6,1.8c-2.5,3.7-5.7,6.6-9.7,8.7c-4,2.1-8.2,3.2-12.8,3.2
			c-4.9,0-9.5-1.2-13.6-3.6c-4.2-2.4-7.5-5.7-9.9-9.9c-2.4-4.2-3.6-8.7-3.6-13.6c0-4.9,1.2-9.5,3.6-13.6c2.4-4.2,5.7-7.5,9.9-9.9
			s8.7-3.6,13.6-3.6c4.6,0,8.9,1.1,12.8,3.2C261.7,25.8,264.9,28.7,267.4,32.4z M262.1,36.1l-2.6,1.7c-1.6-2.4-3.7-4.2-6.2-5.6
			c-2.6-1.4-5.3-2.1-8.3-2.1c-4.9,0-9,1.7-12.4,5.2c-3.4,3.4-5.2,7.6-5.2,12.4c0,4.9,1.7,9,5.2,12.4c3.4,3.4,7.6,5.2,12.4,5.2
			c3,0,5.8-0.7,8.3-2.1c2.6-1.4,4.6-3.3,6.2-5.6l2.6,1.9c-1.9,2.8-4.4,5-7.4,6.6c-3,1.6-6.3,2.4-9.8,2.4c-2.8,0-5.5-0.5-8.1-1.6
			c-2.6-1.1-4.8-2.6-6.6-4.4s-3.3-4.1-4.4-6.6c-1.1-2.6-1.6-5.3-1.6-8.1s0.5-5.5,1.6-8.1c1.1-2.6,2.6-4.8,4.4-6.6s4.1-3.3,6.6-4.4
			c2.6-1.1,5.3-1.6,8.1-1.6c3.5,0,6.8,0.8,9.8,2.5C257.7,31,260.2,33.2,262.1,36.1z"/>
		<path class="st0" d="M285.6,63.2c-2.1-4.9-3.2-10.1-3.2-15.5s1.1-10.6,3.2-15.5c2.1-4.9,5-9.2,8.5-12.8c3.6-3.6,7.8-6.4,12.8-8.5
			c4.9-2.1,10.1-3.2,15.5-3.2S333,8.8,338,10.9c4.9,2.1,9.2,5,12.8,8.5c3.6,3.6,6.4,7.8,8.5,12.8c2.1,4.9,3.2,10.1,3.2,15.5
			s-1.1,10.6-3.2,15.5c-2.1,4.9-5,9.2-8.5,12.8c-3.6,3.6-7.8,6.4-12.8,8.5c-4.9,2.1-10.1,3.2-15.5,3.2s-10.6-1.1-15.5-3.2
			c-4.9-2.1-9.2-5-12.8-8.5C290.6,72.4,287.7,68.2,285.6,63.2z M288.6,33.4c-1.9,4.5-2.9,9.3-2.9,14.3c0,5,1,9.7,2.9,14.3
			c1.9,4.5,4.6,8.5,7.8,11.8c3.3,3.3,7.2,5.9,11.8,7.8c4.5,1.9,9.3,2.9,14.3,2.9s9.7-1,14.3-2.9c4.5-1.9,8.5-4.6,11.8-7.8
			c3.3-3.3,5.9-7.2,7.8-11.8c1.9-4.5,2.9-9.3,2.9-14.3c0-5-1-9.7-2.9-14.3c-1.9-4.5-4.6-8.5-7.8-11.8c-3.3-3.3-7.2-5.9-11.8-7.8
			c-4.5-1.9-9.3-2.9-14.3-2.9s-9.7,1-14.3,2.9c-4.5,1.9-8.5,4.6-11.8,7.8C293.1,25,290.5,28.9,288.6,33.4z M293.4,64.5
			c-3-5.2-4.5-10.8-4.5-16.8c0-6.1,1.5-11.7,4.5-16.8c3-5.2,7.1-9.2,12.2-12.2c5.2-3,10.8-4.5,16.8-4.5s11.7,1.5,16.8,4.5
			c5.2,3,9.2,7.1,12.2,12.2c3,5.2,4.5,10.8,4.5,16.8c0,6.1-1.5,11.7-4.5,16.8c-3,5.2-7.1,9.2-12.2,12.2c-5.2,3-10.8,4.5-16.8,4.5
			s-11.7-1.5-16.8-4.5C300.4,73.8,296.4,69.7,293.4,64.5z M294.4,35.9c-1.6,3.8-2.4,7.7-2.4,11.8s0.8,8.1,2.4,11.8
			c1.6,3.8,3.8,7,6.5,9.7c2.7,2.7,5.9,4.9,9.7,6.5c3.8,1.6,7.7,2.4,11.8,2.4s8.1-0.8,11.8-2.4c3.8-1.6,7-3.8,9.7-6.5
			c2.7-2.7,4.9-5.9,6.5-9.7s2.4-7.7,2.4-11.8s-0.8-8.1-2.4-11.8s-3.8-7-6.5-9.7c-2.7-2.7-5.9-4.9-9.7-6.5c-3.8-1.6-7.7-2.4-11.8-2.4
			s-8.1,0.8-11.8,2.4c-3.8,1.6-7,3.8-9.7,6.5C298.2,28.9,296,32.1,294.4,35.9z M298.9,61.3c-2.4-4.2-3.6-8.7-3.6-13.6
			c0-4.9,1.2-9.5,3.6-13.6c2.4-4.2,5.7-7.5,9.9-9.9c4.2-2.4,8.7-3.6,13.6-3.6s9.5,1.2,13.6,3.6s7.5,5.7,9.9,9.9
			c2.4,4.2,3.6,8.7,3.6,13.6c0,4.9-1.2,9.5-3.6,13.6c-2.4,4.2-5.7,7.5-9.9,9.9c-4.2,2.4-8.7,3.6-13.6,3.6s-9.5-1.2-13.6-3.6
			C304.6,68.8,301.3,65.5,298.9,61.3z M301.7,35.7c-2.1,3.7-3.2,7.7-3.2,12c0,4.4,1.1,8.4,3.2,12s5.1,6.6,8.7,8.7s7.7,3.2,12,3.2
			s8.4-1.1,12-3.2c3.7-2.1,6.6-5.1,8.7-8.7c2.1-3.7,3.2-7.7,3.2-12c0-4.4-1.1-8.4-3.2-12c-2.1-3.7-5.1-6.6-8.7-8.7
			c-3.7-2.1-7.7-3.2-12-3.2s-8.4,1.1-12,3.2S303.8,32,301.7,35.7z M303.3,55.8c-1.1-2.6-1.6-5.3-1.6-8.1s0.5-5.5,1.6-8.1
			c1.1-2.6,2.6-4.8,4.4-6.6c1.9-1.9,4.1-3.3,6.6-4.4c2.6-1.1,5.2-1.6,8.1-1.6s5.5,0.5,8.1,1.6c2.6,1.1,4.8,2.6,6.6,4.4
			s3.3,4.1,4.4,6.6c1.1,2.6,1.6,5.3,1.6,8.1s-0.5,5.5-1.6,8.1s-2.6,4.8-4.4,6.6s-4.1,3.3-6.6,4.4c-2.6,1.1-5.3,1.6-8.1,1.6
			s-5.5-0.5-8.1-1.6c-2.6-1.1-4.8-2.6-6.6-4.4C305.9,60.5,304.4,58.3,303.3,55.8z M310,35.3c-3.4,3.4-5.2,7.6-5.2,12.4
			c0,4.9,1.7,9,5.2,12.4c3.4,3.4,7.6,5.2,12.4,5.2s9-1.7,12.4-5.2c3.4-3.4,5.2-7.6,5.2-12.4c0-4.9-1.7-9-5.2-12.4
			c-3.4-3.4-7.6-5.2-12.4-5.2S313.4,31.8,310,35.3z"/>
		<path class="st0" d="M365.2,84.5h-3.5l29.1-73.6h3.5l29.1,73.6H420l-27.4-69.3L365.2,84.5z M393,22.8l1.8,4.1l-22.8,57.6h-3.4
			L393,22.8z M396.6,31.3l1.7,4.4L379,84.5h-3.5L396.6,31.3z M399.9,40.1l1.7,4.5l-15.8,39.9h-3.4L399.9,40.1z M391.2,75.7l1.2-3.2
			h21l1.3,3.2H391.2z M393.7,69.3l1.2-3.2h16l1.4,3.2H393.7z M396.2,62.9l1.3-3.2h10.9l1.3,3.2H396.2z M401.2,10.9l29.1,73.6h-3.5
			l-29.1-73.6H401.2z M408.1,10.9l29.1,73.6h-3.4l-29.1-73.6H408.1z M444.1,84.5h-3.5l-29.1-73.6h3.4L444.1,84.5z"/>
		<path class="st0" d="M479.4,39.7H474c-2.3,0-3.9-0.6-4.9-1.8c-1-1.2-1.5-2.7-1.5-4.6c0-4.3,3.2-6.4,9.6-6.4c6,0,10.5,0.9,13.5,2.7
			l-2.6,2c-2.1-0.9-5.7-1.4-10.9-1.4c-2.5,0-4.3,0.3-5.1,0.8c-0.9,0.6-1.3,1.3-1.3,2.4c0,1,0.2,1.8,0.7,2.4c0.5,0.6,1.3,0.8,2.6,0.8
			h5.5c4,0,7.6,0.7,10.8,2c3.2,1.4,5.9,3.2,7.9,5.6c2.1,2.4,3.7,5.1,4.8,8.1c1.1,3.1,1.6,6.3,1.6,9.8c0,2.8-0.4,5.5-1.2,8.1
			s-2,4.9-3.6,7c-1.6,2.1-3.6,4-5.8,5.5c-2.3,1.6-5,2.8-8.1,3.6c-3.1,0.9-6.5,1.3-10.2,1.3c-5.7,0-11.1-0.9-16.1-2.6
			c-5-1.7-9.1-4.2-12.5-7.3l2.6-1.9c3,2.7,6.8,4.8,11.4,6.3c4.5,1.5,9.4,2.2,14.6,2.2c4.1,0,7.7-0.6,11-1.8c3.3-1.2,6-2.8,8.1-4.8
			s3.7-4.4,4.9-7.1s1.7-5.6,1.7-8.7c0-4.1-0.8-7.8-2.5-11.2c-1.7-3.3-4.2-6-7.6-8.1C488,40.7,484,39.7,479.4,39.7z M474,55.7h4.9
			c2.3,0,3.9,0.6,4.9,1.8c1,1.2,1.5,2.7,1.5,4.6c0,4.3-3.2,6.4-9.6,6.4c-6,0-10.5-0.9-13.6-2.7l2.6-2c2.1,0.9,5.7,1.4,11,1.4
			c2.5,0,4.3-0.3,5.1-0.8c0.9-0.6,1.3-1.3,1.3-2.4c0-1-0.2-1.8-0.7-2.3c-0.5-0.6-1.4-0.9-2.7-0.9H474c-4.1,0-7.8-0.7-11.1-2
			c-3.3-1.3-6-3.2-8.1-5.5c-2.1-2.3-3.7-5.1-4.9-8.1c-1.1-3.1-1.7-6.4-1.7-10c0-2.8,0.4-5.5,1.2-8.1s2-4.9,3.6-7
			c1.6-2.1,3.6-4,5.8-5.5s5-2.8,8.1-3.6c3.1-0.9,6.5-1.3,10.2-1.3c5.7,0,11.1,0.9,16,2.6c5,1.7,9.1,4.2,12.4,7.3l-2.6,1.9
			c-3-2.7-6.8-4.8-11.3-6.3c-4.5-1.5-9.4-2.2-14.6-2.2c-4.1,0-7.7,0.6-11,1.8c-3.3,1.2-6,2.8-8.1,4.8c-2.1,2-3.7,4.4-4.9,7.1
			c-1.1,2.7-1.7,5.6-1.7,8.7c0,4.2,0.8,7.9,2.5,11.3c1.7,3.3,4.3,6,7.7,8.1C465.2,54.7,469.3,55.7,474,55.7z M474,42.9h5.1
			c6,0,10.7,1.8,14.1,5.5c3.4,3.7,5.1,8.2,5.1,13.7c0,5.5-2,10.1-5.9,13.8c-3.9,3.6-9.5,5.4-16.6,5.4c-4.7,0-9.2-0.7-13.3-2
			c-4.1-1.3-7.5-3.1-10.3-5.5l2.5-2c2.4,2,5.5,3.5,9.2,4.6c3.7,1.1,7.7,1.6,11.9,1.6c6.3,0,11-1.5,14.3-4.5c3.3-3,5-6.8,5-11.5
			c0-4.6-1.4-8.4-4.2-11.5c-2.8-3-6.7-4.5-11.9-4.5h-5c-4.3,0-7.6-1.2-9.7-3.6c-2.2-2.4-3.2-5.5-3.2-9.2c0-3.8,1.3-6.9,4-9.2
			c2.7-2.4,6.7-3.6,12.1-3.6c3.8,0,7.3,0.4,10.5,1.3c3.2,0.9,5.9,2.1,8,3.8l-2.5,2c-3.7-2.5-9-3.8-16-3.8c-4.5,0-7.7,0.9-9.8,2.6
			c-2.1,1.8-3.1,4.1-3.1,7c0,2.9,0.8,5.2,2.3,7C468.1,42,470.6,42.9,474,42.9z M474,49.3h4.9c4.3,0,7.6,1.2,9.7,3.6
			c2.2,2.4,3.2,5.5,3.2,9.2c0,3.8-1.3,6.9-4,9.2c-2.7,2.4-6.7,3.6-12.1,3.6c-3.8,0-7.3-0.4-10.5-1.3c-3.2-0.9-5.9-2.1-8-3.8l2.5-2
			c3.7,2.5,9,3.8,16,3.8c4.5,0,7.7-0.9,9.8-2.6c2.1-1.8,3.1-4.1,3.1-7c0-2.9-0.8-5.2-2.3-7c-1.5-1.8-4-2.6-7.5-2.6H474
			c-6.1,0-10.8-1.8-14.2-5.4c-3.4-3.6-5.1-8.2-5.1-13.8c0-5.5,2-10.1,5.9-13.8c3.9-3.6,9.5-5.4,16.6-5.4c4.7,0,9.2,0.7,13.3,2
			c4.1,1.3,7.5,3.1,10.2,5.5l-2.5,2c-2.4-2-5.5-3.5-9.2-4.6c-3.7-1.1-7.6-1.6-11.9-1.6c-6.3,0-11,1.5-14.3,4.5c-3.3,3-5,6.8-5,11.5
			c0,4.7,1.4,8.5,4.2,11.5C464.8,47.8,468.8,49.3,474,49.3z"/>
		<path class="st0" d="M510.3,14.1v-3.2h48v3.2H510.3z M510.3,20.5v-3.2h48v3.2H510.3z M510.3,26.9v-3.2h48v3.2h-12.8v57.6h-3.2
			V26.9h-3.2v57.6h-3.2V26.9h-3.2v57.6h-3.2V26.9h-3.2v57.6h-3.2V26.9H510.3z"/>
	</g>
	<radialGradient id="SVGID_1_" cx="153.3938" cy="46.1038" r="38.3938" gradientUnits="userSpaceOnUse">
		<stop  offset="0" style="stop-color:#F39200"/>
		<stop  offset="1" style="stop-color:#FCEA10"/>
	</radialGradient>
	<circle class="st1" cx="153.4" cy="46.1" r="38.4"/>
</g>
<g>
</g>
<g>
</g>
<g>
</g>
<g>
</g>
<g>
</g>
<g>
</g>
</svg>
